<mxfile host="app.diagrams.net" modified="2023-04-11T06:35:12.408Z" agent="Mozilla/5.0 (Windows NT 10.0; Win64; x64) AppleWebKit/537.36 (KHTML, like Gecko) Chrome/111.0.0.0 Safari/537.36" version="21.1.5" etag="poOdc6cJ7E4Po9tuxiGE" type="github">
  <diagram name="Page-1" id="OpO_lCbMSJsqr4ib1rP1">
    <mxGraphModel>
      <root>
        <mxCell id="0" />
        <mxCell id="1" parent="0" />
      </root>
    </mxGraphModel>
  </diagram>
</mxfile>
